<?xml version="1.0" encoding="utf-8"?>
<!-- Generator: Adobe Illustrator 22.1.0, SVG Export Plug-In . SVG Version: 6.00 Build 0)  -->
<svg version="1.1" id="Layer_1" xmlns="http://www.w3.org/2000/svg" xmlns:xlink="http://www.w3.org/1999/xlink" x="0px" y="0px"
	 viewBox="0 0 84 40" style="enable-background:new 0 0 84 40;" xml:space="preserve">
<style type="text/css">
	.st0{fill:#CE0E2D;}
	.st1{fill:#EE7623;}
</style>
<g>
	<g>
		<g>
			<g>
				<g>
					<path class="st0" d="M7.7,26.7c-1.2-0.6-2.3-1-2.3-2c0-0.8,0.6-1.2,1.7-1.2c0.5,0,0.8,0,1,0.1c0.2,0,0.5,0.1,0.6,0.1
						c0.9,0,1.5-0.6,2-1.7l0.1-0.5C10.7,21.7,9.1,21,6.9,21c-3.3,0-5.1,2.2-5.1,4.3c0,1,0.3,2,0.8,2.5c0.8,0.8,1.7,1.4,2.7,1.8
						C6.9,30.3,8,30.9,8,31.8c0,0.8-0.8,1.4-2.2,1.4c-1.7,0-3.1-0.9-3.3-1l-1.4,2.5c0.2,0.1,2.1,1.3,5,1.3c3.1,0,5.4-1.7,5.4-4.5
						C11.5,28.6,9.4,27.5,7.7,26.7z"/>
					<path class="st0" d="M19.7,27.9l5.5-6.9h-3.9L16.8,27h-0.1v-5.9h-3.3v14.5h0.2c1.4,0,3.1-0.7,3.1-3v-3.3h0.1l4.5,6.2h4.2
						L19.7,27.9z"/>
				</g>
				<g>
					<path class="st0" d="M25.4,5.5c-1.2,0.2-2.9,1.3-2.9,3.2c0,1.6,1.4,2.7,1.4,4.8c0,1.6-0.8,2.8-2,3.5c0.5,0,0.8-0.1,1.3-0.1
						c0.9,0,1.6,0.1,1.6,0.1l5.2-6.3C28.8,8.5,27.1,6.8,25.4,5.5z"/>
					<path class="st0" d="M29.8,22.8c0.7-0.9,0.8-2.7,0.8-4.3c0.1-1.5,0.5-2.7,2.4-2.7c0.5,0,0.8,0.1,1.7,0.1c3,0,5-1,6.2-1.7
						c-2.4-1.6-6.1-3.2-10.7-3.5c-0.3,0.8-2.5,7.2-2.8,7.7c0,0,0.5,0.5,0.9,1.4C29.1,21,29.6,22,29.8,22.8z"/>
				</g>
			</g>
			<g>
				<path class="st1" d="M18.9,17.5c-0.2,0-0.5-0.2-0.5-0.5c0-0.3-1.3-12.1-1.5-14c0-0.2-0.1-0.8-0.1-0.9c0-0.3,0.2-0.5,0.5-0.5
					c0.7,0,3.9,0.8,7.5,3.3c-1,0.3-2.9,1.4-2.9,3.6c0,2,1.4,3,1.4,5C23.2,16.8,19.6,17.5,18.9,17.5z"/>
				<path class="st1" d="M30.1,23.5c0.1,0.1,0.1,0.3,0.1,0.3c0.1,0.1,0.2,0.2,0.3,0.2c0.1,0,0.2,0,0.3-0.1
					c0.3-0.1,11.1-5.2,12.8-5.9c0.2-0.1,0.7-0.3,0.8-0.5c0.1-0.1,0.2-0.2,0.2-0.3c0-0.1,0-0.1-0.1-0.2c-0.2-0.3-1.3-1.4-3-2.7
					c-1.4,0.8-3.6,2-6.8,2c-0.8,0-0.9,0-1.5,0c-1.6,0-2,0.7-2.1,2.1c0,0.2,0,0.7,0,0.9C31.2,20.7,31.1,22.5,30.1,23.5z"/>
			</g>
		</g>
	</g>
	<g>
		<g>
			<path class="st1" d="M79.4,33v-3.9H81l0.6-1.5h-2.3v-2.3h-0.2c-0.8,0-1.8,0.5-1.8,2.3l0,0h-1.5v1.5h1.5v4.6c0,1.3,0.8,2,1.8,2
				c0.8,0,2.1-0.3,2.1-2.1c-0.1,0-0.6,0.3-0.9,0.3C79.6,34,79.4,33.5,79.4,33z"/>
			<path class="st1" d="M70.1,30.7c0-0.8,0.7-1.7,1.5-1.7c0.9,0,1.5,0.8,1.5,1.7H70.1z M71.7,27.4c-2,0-3.6,1.6-3.6,4
				c0,2.5,1.6,4,3.9,4c1.8,0,2.8-0.8,3-0.8c0,0-0.2-0.3-0.2-0.5c-0.2-0.5-0.6-0.6-0.8-0.6c-0.7,0-0.8,0.3-1.6,0.3
				c-1.5,0-2.1-1.2-2.2-2.1h5.2c0-0.2,0-0.5,0-0.7C75.3,29,73.9,27.4,71.7,27.4"/>
			<path class="st1" d="M47.8,33.2V25c0-0.9-0.7-1.6-1.6-1.6c-0.1,0-0.5,0-0.5,0V34c0,0.9,0.7,1.6,1.7,1.6c1.3,0,1.7-0.9,1.7-1.8
				c0,0-0.3,0.1-0.7,0.1C48.1,34,47.8,33.8,47.8,33.2z"/>
			<path class="st1" d="M55.3,33.5c-0.1,0.1-0.7,0.6-1.5,0.6c-0.7,0-1.2-0.5-1.2-1s0.6-1,1.6-1c0.3,0,1,0,1,0L55.3,33.5L55.3,33.5z
				 M55.4,34.7c0.1,0.3,0.5,0.8,1.2,0.8c0.3,0,0.8-0.1,0.9-0.1c-0.1-0.2-0.2-0.8-0.2-2.3v-2.8c0-2.1-1.3-2.9-3.3-2.9
				c-1.7,0-2.9,0.8-3.1,0.9c0,0,0.1,0.1,0.1,0.2c0.2,0.3,0.3,0.8,0.8,0.8c0.6,0,0.9-0.5,2-0.5c1,0,1.6,0.6,1.6,1.3c0,0,0,0.2,0,0.3
				c0,0-0.3,0-0.7,0c-2.7,0-4,1-4,2.7c0,1.5,1,2.4,2.7,2.4C54.7,35.6,55.3,34.8,55.4,34.7"/>
			<path class="st1" d="M39.7,34c-0.6,0-0.8-0.1-0.9-0.1v-4.7c0.1,0,0.5-0.1,0.9-0.1c1.2,0,2.3,0.8,2.3,2.4C42,33.2,41,34,39.7,34z
				 M40,27.4c-1.7,0-3,0.5-3.2,0.6v11.6h0.3c0.9,0,1.7-0.7,1.7-1.8v-2.2c0.1,0,0.7,0.2,1.4,0.2c2.2,0,4-1.4,4-4.2
				C44.1,29.2,42.6,27.4,40,27.4"/>
			<path class="st1" d="M59.3,30.2v5.3h2.1V30c0.1-0.1,0.8-0.8,1.6-0.8c1,0,1.5,0.8,1.5,1.7v4.6h2.1v-5.1c0-2.3-1.8-2.9-2.9-2.9
				c-1.3,0-2.2,0.8-2.3,1c-0.1-0.3-0.5-0.8-1.3-0.8c-0.3,0-0.8,0.1-0.8,0.1C59.2,28,59.3,28.7,59.3,30.2z"/>
		</g>
	</g>
</g>
</svg>
